<?xml version="1.0" encoding="utf-8"?>
<!-- Generator: Adobe Illustrator 22.1.0, SVG Export Plug-In . SVG Version: 6.00 Build 0)  -->
<svg version="1.1" id="Layer_1" xmlns="http://www.w3.org/2000/svg" xmlns:xlink="http://www.w3.org/1999/xlink" x="0px" y="0px"
	 viewBox="0 0 217.8 100" style="enable-background:new 0 0 217.8 100;" xml:space="preserve">
<style type="text/css">
	.st0{fill:url(#SVGID_1_);}
	.st1{fill:url(#SVGID_2_);}
	.st2{fill:url(#SVGID_3_);}
	.st3{fill:url(#SVGID_4_);}
	.st4{fill:url(#SVGID_5_);}
	.st5{fill:url(#SVGID_6_);}
	.st6{opacity:0.45;}
	.st7{fill:url(#SVGID_7_);}
	.st8{fill:url(#SVGID_8_);}
	.st9{fill:url(#SVGID_9_);}
	.st10{fill:url(#SVGID_10_);}
	.st11{fill:url(#SVGID_11_);}
	.st12{fill:url(#SVGID_12_);}
	.st13{display:none;fill:url(#SVGID_13_);fill-opacity:0.53;}
	.st14{display:none;}
</style>
<g id="Logo_copy">
	<linearGradient id="SVGID_1_" gradientUnits="userSpaceOnUse" x1="13.0175" y1="8.7987" x2="172.2675" y2="109.2987">
		<stop  offset="0" style="stop-color:#80EEC0"/>
		<stop  offset="1" style="stop-color:#00DC82"/>
	</linearGradient>
	<path class="st0" d="M130.4,14.4H122c-0.3,0-0.5,0.2-0.5,0.5v6.5l0,0v27.2c0,0.4,0,0.8,0,1.3c0,20.8-16.9,37.8-37.8,37.8H52.9
		c-0.1,0-0.3,0.1-0.4,0.2L44,96.2c-0.3,0.3-0.1,0.9,0.4,0.9h39.3c14.9,0,28.2-6.9,36.8-17.7c0.3-0.4,0.9-0.2,0.9,0.3V85l-1.6-1.3
		c-0.2-0.2-0.5-0.1-0.7,0.1c-2,2-4.1,3.9-6.4,5.6c-0.3,0.2-0.3,0.6,0,0.8l8.6,6.7c0.1,0.1,0.2,0.1,0.3,0.1h8.8
		c0.3,0,0.5-0.2,0.5-0.5V14.9C131,14.6,130.7,14.4,130.4,14.4z"/>
	<linearGradient id="SVGID_2_" gradientUnits="userSpaceOnUse" x1="-0.3401" y1="29.9649" x2="158.9099" y2="130.4649">
		<stop  offset="0" style="stop-color:#80EEC0"/>
		<stop  offset="1" style="stop-color:#00DC82"/>
	</linearGradient>
	<path class="st1" d="M52.5,68.7c0.1-0.1,0.2-0.3,0.2-0.5V45.6c0-0.2-0.1-0.4-0.2-0.5l-8.2-6.4c-0.4-0.3-1.1,0-1.1,0.5v37.3
		c0,0.6,0.7,0.9,1.1,0.5L52.5,68.7z"/>
	<linearGradient id="SVGID_3_" gradientUnits="userSpaceOnUse" x1="22.6671" y1="-6.4918" x2="181.9171" y2="94.0082">
		<stop  offset="0" style="stop-color:#80EEC0"/>
		<stop  offset="1" style="stop-color:#00DC82"/>
	</linearGradient>
	<path class="st2" d="M101.9,80.9c1.8-1.1,3.6-2.4,5.2-3.8c0.4-0.3,0.7-0.6,1.1-1c0.5-0.4,0.4-1.2-0.1-1.6L30.5,13.9
		c-0.8-0.6-0.3-1.9,0.6-1.9h11c0.6,0,1,0.5,1,1v8.3c0,0.3,0.1,0.6,0.4,0.8L51,28c0.7,0.5,1.7,0,1.7-0.8v-5.5c0-0.9,1-1.4,1.7-0.8
		l59.5,46.4c0.5,0.4,1.2,0.3,1.6-0.3c1.3-2.3,2.3-4.7,3.1-7.2c0.1-0.4,0-0.9-0.4-1.1L60.9,13.9c-0.8-0.6-0.3-1.9,0.6-1.9h22.1
		c12.5,0,23.6,6.1,30.4,15.4v-0.1c2.3,3.2,4.2,6.7,5.5,10.5c0.1,0.2,0.1,0.3,0.2,0.5V19.6c0-0.3-0.1-0.5-0.3-0.7
		c-5.2-6-11.8-10.7-19.4-13.4l0,0c-5-1.9-10.5-2.9-16.3-2.9H46.4l0,0h-3.2l0,0H3.5c-1,0-1.4,1.3-0.6,1.9l6.9,5.4l2.9,2.2l88.1,68.8
		C101,81.1,101.5,81.1,101.9,80.9z"/>
	<linearGradient id="SVGID_4_" gradientUnits="userSpaceOnUse" x1="4.0857" y1="22.9518" x2="163.3357" y2="123.4518">
		<stop  offset="0" style="stop-color:#80EEC0"/>
		<stop  offset="1" style="stop-color:#00DC82"/>
	</linearGradient>
	<polygon class="st3" points="121.5,97.1 121.5,97 121.4,97 	"/>
	<linearGradient id="SVGID_5_" gradientUnits="userSpaceOnUse" x1="45.6554" y1="-42.9186" x2="204.9054" y2="57.5814">
		<stop  offset="0" style="stop-color:#80EEC0"/>
		<stop  offset="1" style="stop-color:#00DC82"/>
	</linearGradient>
	<path class="st4" d="M119.1,7.8c0.2,0.1,0.3,0.3,0.5,0.4c1.1,1.9,1.4,2.3,2.4,4c0.2,0.3,0.3,0.5,0.7,0.4h3.4c1.2,0,2.2,0,3.4,0.1
		c0.3,0,0.6-0.1,0.8-0.5c1.1-2,1.1-1.8,2.4-4c0.1-0.2,0.3-0.4,0.5-0.5c0.7-0.3,1-1,0.8-1.6c-0.3-0.8-1-1.1-1.7-0.8
		c-0.7,0.2-1,1-0.8,1.7c0,0.1,0,0.4-0.1,0.5c-0.7,0.8-1.6,1.2-2.7,0.8c-1.1-0.3-1.7-1-1.9-2.1c-0.1-0.5-0.1-1.2,0.4-1.7
		c0.4-0.4,0.3-1.2-0.2-1.6c-0.5-0.5-1.2-0.5-1.8,0c-0.5,0.4-0.6,1.2-0.2,1.6c0.5,0.5,0.4,1,0.4,1.5c-0.1,1.1-0.8,2-1.8,2.3
		s-2.1,0-2.8-0.7c-0.2-0.2-0.2-0.4-0.1-0.7c0.3-0.7-0.1-1.4-0.8-1.6c-0.7-0.3-1.4,0.1-1.7,0.7C118.1,6.8,118.4,7.5,119.1,7.8z"/>
	<linearGradient id="SVGID_6_" gradientUnits="userSpaceOnUse" x1="38.7263" y1="-31.9387" x2="197.9763" y2="68.5613">
		<stop  offset="0" style="stop-color:#80EEC0"/>
		<stop  offset="1" style="stop-color:#00DC82"/>
	</linearGradient>
	<path class="st5" d="M168,2.9c-13-0.1-26.7,5.7-35.3,15.4c0,5.9-0.3,11.8,0,17.7c-0.1-1.5,1.8-3.6,2.5-4.8
		c11.2-17.3,33-24.9,51.5-14.1c10.7,6.3,18.2,17.7,18.9,30.1c0,0.8,0.1,1.6,0.1,2.4c0,19-15.5,35.2-34.2,37.2
		c-6.7,0.7-13.9-0.6-19.9-3.6c-7-3.5-13.1-8.6-19-13.7l0,0v12c4.7,4,9.1,7.7,14.7,10.3c5.2,2.4,10.8,4,16.5,4.7
		c5.6,0.6,11.2,0.2,16.6-1.2c19-5.2,33.4-22.4,34.6-42.2c0.8-12.8-3.5-25.7-12.2-35.2C194,8.1,181,3,168,2.9z M141.8,10.4
		c-0.1,0-0.1,0.1-0.2,0.1C141.7,10.5,141.7,10.4,141.8,10.4z"/>
</g>
<g id="Logo_Shadows" class="st6">
	
		<linearGradient id="SVGID_7_" gradientUnits="userSpaceOnUse" x1="36.8636" y1="410.3596" x2="94.9528" y2="516.3535" gradientTransform="matrix(1 0 0 1 0 -410)">
		<stop  offset="0" style="stop-color:#000000;stop-opacity:0.5"/>
		<stop  offset="0.2349" style="stop-color:#383838;stop-opacity:0.3826"/>
		<stop  offset="0.7715" style="stop-color:#C2C2C2;stop-opacity:0.1143"/>
		<stop  offset="1" style="stop-color:#FFFFFF;stop-opacity:0"/>
	</linearGradient>
	<path class="st7" d="M108.1,74.6L30.5,13.9c-0.8-0.6-0.3-1.9,0.6-1.9H12.6l88.1,68.8c0.3,0.3,0.8,0.3,1.2,0.1
		c1.8-1.1,3.6-2.4,5.2-3.8c0.4-0.3,0.7-0.6,1.1-1C108.6,75.7,108.6,75,108.1,74.6z"/>
	
		<linearGradient id="SVGID_8_" gradientUnits="userSpaceOnUse" x1="80.059" y1="420.9258" x2="81.7346" y2="478.4207" gradientTransform="matrix(1 0 0 1 0 -410)">
		<stop  offset="0" style="stop-color:#000000;stop-opacity:0.5"/>
		<stop  offset="0.1527" style="stop-color:#3B3B3B;stop-opacity:0.4237"/>
		<stop  offset="0.322" style="stop-color:#767676;stop-opacity:0.339"/>
		<stop  offset="0.4857" style="stop-color:#A7A7A7;stop-opacity:0.2571"/>
		<stop  offset="0.6394" style="stop-color:#CDCDCD;stop-opacity:0.1803"/>
		<stop  offset="0.7808" style="stop-color:#E9E9E9;stop-opacity:0.1096"/>
		<stop  offset="0.9053" style="stop-color:#F9F9F9;stop-opacity:4.730000e-02"/>
		<stop  offset="1" style="stop-color:#FFFFFF;stop-opacity:0"/>
	</linearGradient>
	<path class="st8" d="M60.9,13.9c-0.8-0.6-0.3-1.9,0.6-1.9H43.2v1v8.3c0,0.3,0.1,0.6,0.4,0.8L51,28c0.7,0.5,1.7,0,1.7-0.8v-5.5
		c0-0.9,1-1.4,1.7-0.8l59.5,46.4c0.5,0.4,1.2,0.3,1.6-0.3c1.3-2.3,2.3-4.7,3.1-7.2c0.1-0.4,0-0.9-0.4-1.1L60.9,13.9z"/>
	
		<linearGradient id="SVGID_9_" gradientUnits="userSpaceOnUse" x1="127.0258" y1="506.03" x2="51.8037" y2="441.8404" gradientTransform="matrix(1 0 0 1 0 -410)">
		<stop  offset="0" style="stop-color:#000000;stop-opacity:0.5"/>
		<stop  offset="8.870000e-02" style="stop-color:#070707;stop-opacity:0.4556"/>
		<stop  offset="0.2165" style="stop-color:#1A1A1A;stop-opacity:0.3918"/>
		<stop  offset="0.3679" style="stop-color:#393939;stop-opacity:0.3161"/>
		<stop  offset="0.5373" style="stop-color:#656565;stop-opacity:0.2313"/>
		<stop  offset="0.7219" style="stop-color:#9D9D9D;stop-opacity:0.139"/>
		<stop  offset="0.9163" style="stop-color:#E0E0E0;stop-opacity:4.190000e-02"/>
		<stop  offset="1" style="stop-color:#FFFFFF;stop-opacity:0"/>
	</linearGradient>
	<path class="st9" d="M121.5,97V85l-1.6-1.3c-0.2-0.2-0.5-0.1-0.7,0.1c-2,2-4.1,3.9-6.4,5.6c-0.3,0.2-0.3,0.6,0,0.8l8.6,6.7
		C121.3,97,121.4,97,121.5,97z"/>
	
		<linearGradient id="SVGID_10_" gradientUnits="userSpaceOnUse" x1="44.5607" y1="445.1793" x2="53.6988" y2="514.9409" gradientTransform="matrix(1 0 0 1 0 -410)">
		<stop  offset="0" style="stop-color:#000000;stop-opacity:0.5"/>
		<stop  offset="5.010000e-02" style="stop-color:#070707;stop-opacity:0.4718"/>
		<stop  offset="0.1226" style="stop-color:#1A1A1A;stop-opacity:0.4309"/>
		<stop  offset="0.2087" style="stop-color:#3A3A3A;stop-opacity:0.3823"/>
		<stop  offset="0.3054" style="stop-color:#666666;stop-opacity:0.3278"/>
		<stop  offset="0.4108" style="stop-color:#9E9E9E;stop-opacity:0.2684"/>
		<stop  offset="0.522" style="stop-color:#E2E2E2;stop-opacity:0.2057"/>
		<stop  offset="0.5452" style="stop-color:#F1F1F1;stop-opacity:0.1926"/>
		<stop  offset="0.7487" style="stop-color:#FFFFFF;stop-opacity:0"/>
	</linearGradient>
	<path class="st10" d="M52.7,68.3V45.6c0-0.2-0.1-0.4-0.2-0.5l-8.2-6.4c-0.4-0.3-1.1,0-1.1,0.5v37.3c0,0.6,0.7,0.9,1.1,0.5l8.2-8.2
		C52.6,68.6,52.7,68.4,52.7,68.3z"/>
	
		<linearGradient id="SVGID_11_" gradientUnits="userSpaceOnUse" x1="127.525" y1="454.2581" x2="43.9447" y2="531.8206" gradientTransform="matrix(1 0 0 1 0 -410)">
		<stop  offset="0" style="stop-color:#000000;stop-opacity:0.4"/>
		<stop  offset="0.6357" style="stop-color:#010101;stop-opacity:0.25"/>
		<stop  offset="0.6629" style="stop-color:#060606;stop-opacity:0.2237"/>
		<stop  offset="0.6949" style="stop-color:#141414;stop-opacity:0.1927"/>
		<stop  offset="0.7295" style="stop-color:#2C2C2C;stop-opacity:0.1594"/>
		<stop  offset="0.7658" style="stop-color:#4D4D4D;stop-opacity:0.1243"/>
		<stop  offset="0.8035" style="stop-color:#787878;stop-opacity:8.790000e-02"/>
		<stop  offset="0.8423" style="stop-color:#ACACAC;stop-opacity:5.040000e-02"/>
		<stop  offset="0.8814" style="stop-color:#E9E9E9;stop-opacity:1.260000e-02"/>
		<stop  offset="0.8945" style="stop-color:#FFFFFF;stop-opacity:0"/>
	</linearGradient>
	<path class="st11" d="M121.4,47.5v1.1c0,0.4,0,0.8,0,1.3c0,20.8-16.9,37.8-37.8,37.8H52.9c-0.1,0-0.3,0.1-0.4,0.2L44,96.2l0,0h41.4
		C127.3,92.7,121.9,50.8,121.4,47.5z"/>
	
		<linearGradient id="SVGID_12_" gradientUnits="userSpaceOnUse" x1="139.3061" y1="483.0023" x2="212.4162" y2="483.0023" gradientTransform="matrix(1 0 0 1 0 -410)">
		<stop  offset="0.1055" style="stop-color:#FFFFFF;stop-opacity:0"/>
		<stop  offset="0.1143" style="stop-color:#F8F8F8;stop-opacity:3.918743e-03"/>
		<stop  offset="0.1838" style="stop-color:#C5C5C5;stop-opacity:3.500000e-02"/>
		<stop  offset="0.2581" style="stop-color:#969696;stop-opacity:6.820000e-02"/>
		<stop  offset="0.3355" style="stop-color:#6E6E6E;stop-opacity:0.1028"/>
		<stop  offset="0.4167" style="stop-color:#4C4C4C;stop-opacity:0.1392"/>
		<stop  offset="0.5029" style="stop-color:#303030;stop-opacity:0.1777"/>
		<stop  offset="0.5957" style="stop-color:#1B1B1B;stop-opacity:0.2192"/>
		<stop  offset="0.6984" style="stop-color:#0C0C0C;stop-opacity:0.2651"/>
		<stop  offset="0.8188" style="stop-color:#030303;stop-opacity:0.319"/>
		<stop  offset="1" style="stop-color:#000000;stop-opacity:0.4"/>
	</linearGradient>
	<path class="st12" d="M205.8,49.7c0,19-15.5,35.2-34.2,37.2c-6.7,0.7-13.9-0.6-19.9-3.6c-7-3.5-13.1-8.6-19-13.7l0,0v12
		c2.4,2.1,4.8,4.1,7.3,5.9c14.3,9.3,26.8,8.8,26.8,8.8C207.5,92.6,205.8,49.7,205.8,49.7z"/>
	
		<radialGradient id="SVGID_13_" cx="127.3" cy="413.9" r="21.1" gradientTransform="matrix(1 0 0 1 0 -410)" gradientUnits="userSpaceOnUse">
		<stop  offset="0" style="stop-color:#FFFFFF;stop-opacity:0.2"/>
		<stop  offset="1" style="stop-color:#FFFFFF;stop-opacity:0"/>
	</radialGradient>
	<circle class="st13" cx="127.3" cy="3.9" r="21.1"/>
	<g class="st14">
		
			<image style="display:inline;overflow:visible;enable-background:new    ;" width="366" height="87" xlink:href="7C2B8DD8.png"  transform="matrix(0.5239 0 0 0.5239 25.0372 84.2538)">
		</image>
	</g>
</g>
</svg>
